<svg width="958" height="193" viewBox="0 0 958 193" fill="none" xmlns="http://www.w3.org/2000/svg">
<g clip-path="url(#clip0_7_67)">
<path d="M903.457 130.913L926.548 68.1055H958L905.58 193.105H874.627L887.108 164.105H884.113L847.668 68.1055H880.618L903.457 130.913Z" fill="#0F0B42"/>
<path d="M828.198 164.105L798.823 123.373V164.105H769.582V40.1055H798.823V106.783L827.199 68.1055H863.644L824.106 115.855L864.642 164.105H828.198Z" fill="#0F0B42"/>
<path d="M695.089 160.837C702.064 163.749 709.972 165.205 718.785 165.205C726.924 165.412 734.997 163.68 742.356 160.147C748.979 156.749 754.015 152.228 757.465 146.531C761.016 140.834 762.779 134.499 762.779 127.55C762.779 120.219 760.991 114.241 757.465 109.592C753.915 104.942 749.684 101.392 744.723 98.9391C738.602 95.9627 732.293 93.4024 725.836 91.2754C718.055 88.7208 712.314 86.345 708.662 84.1225C706.987 83.2547 705.585 81.9285 704.615 80.2942C703.645 78.6598 703.145 76.7826 703.172 74.8749C703.172 71.2985 704.255 68.5651 706.446 66.7003C708.612 64.7077 711.483 63.7369 715.008 63.7369C718.699 63.5772 722.316 64.8156 725.156 67.2112C726.481 68.352 727.549 69.7679 728.287 71.3633C729.026 72.9587 729.418 74.6963 729.438 76.4588H761.243C760.664 64.9376 756.307 55.9965 748.173 49.6101C740.039 43.0959 729.337 39.8516 716.041 39.8516C702.996 39.8516 692.394 43.0959 684.26 49.6101C676.127 55.9965 672.047 64.8865 672.047 76.28C672.047 83.9437 673.835 90.1769 677.386 94.9284C680.716 99.5059 685.076 103.211 690.103 105.734C696.266 108.669 702.638 111.128 709.166 113.092C713.376 114.292 717.513 115.742 721.555 117.434C724.302 118.563 726.808 120.219 728.934 122.314C730.999 124.281 732.031 126.784 732.031 129.799C732.1 131.425 731.795 133.045 731.139 134.53C730.484 136.016 729.496 137.326 728.254 138.356C725.736 140.298 722.286 141.32 717.954 141.32C714.208 141.497 710.529 140.259 707.63 137.845C705.011 135.393 703.449 131.893 702.996 127.372H671.72C671.733 134.744 674.004 141.929 678.217 147.936C682.498 153.633 688.088 157.925 695.089 160.837Z" fill="#0F0B42"/>
<path d="M536.804 117.025C536.804 107.377 538.608 98.9069 542.192 91.6395C545.534 84.7557 550.721 78.9346 557.175 74.8243C563.469 70.8959 570.755 68.8523 578.173 68.9352C584.362 68.9352 589.95 70.2132 595.011 72.7944C599.895 75.1394 604.071 78.7363 607.114 83.2194V40.1055H635.854V164.113H607.114V150.656C604.314 155.249 600.299 158.978 595.512 161.432C590.165 164.214 584.199 165.594 578.173 165.441C570.758 165.531 563.471 163.497 557.175 159.577C550.737 155.372 545.559 149.5 542.192 142.586C538.472 134.588 536.629 125.845 536.804 117.025ZM607.114 117.201C607.114 110.008 605.109 104.345 601.05 100.21C599.219 98.2074 596.983 96.6174 594.49 95.5459C591.997 94.4743 589.305 93.9457 586.592 93.9951C580.879 93.9951 575.993 96.0501 571.959 100.21C568.05 104.22 566.071 109.858 566.071 117C566.071 124.192 568.025 129.906 571.959 134.166C573.829 136.168 576.097 137.757 578.617 138.832C581.137 139.906 583.853 140.443 586.592 140.406C592.305 140.406 597.116 138.326 601.05 134.166C605.084 130.031 607.114 124.368 607.114 117.201Z" fill="#0F0B42"/>
<path fill-rule="evenodd" clip-rule="evenodd" d="M534.528 115.232C534.528 117.92 534.352 120.737 534.024 123.684H470.279C470.733 129.525 472.547 134.022 475.747 137.175C479.036 140.219 483.336 141.856 487.765 141.749C494.769 141.749 499.657 138.7 502.404 132.626H532.387C530.862 138.786 527.984 144.506 523.971 149.348C519.93 154.364 514.806 158.345 509.005 160.978C502.629 163.872 495.719 165.318 488.748 165.217C479.753 165.217 471.715 163.253 464.711 159.324C457.74 155.444 452.016 149.572 448.233 142.421C444.147 134.529 442.108 125.691 442.312 116.757C442.312 106.936 444.227 98.407 448.082 91.0669C451.862 83.9293 457.576 78.0675 464.534 74.19C471.975 70.1349 480.299 68.0892 488.722 68.2456C497.642 68.2456 505.553 70.184 512.457 74.0091C519.273 77.7429 524.878 83.4381 528.582 90.395C532.66 97.9837 534.712 106.543 534.528 115.206V115.232ZM500.766 95.7966C504.067 98.7171 505.704 102.671 505.704 107.634H470.455C470.94 103.025 473.056 98.758 476.402 95.6415C479.778 92.7884 484.047 91.283 488.42 91.4029C492.924 91.2484 497.323 92.814 500.766 95.7966Z" fill="#0F0B42"/>
<path fill-rule="evenodd" clip-rule="evenodd" d="M420.32 164.105L385.783 116.782H379.018V164.105H349V40.0234H399.414C409.136 40.0234 417.405 41.7025 424.195 45.1106C430.662 48.0973 436.058 52.9953 439.655 59.1442C443.085 65.1354 444.842 71.9384 444.742 78.8413C444.742 87.0359 442.412 94.3785 437.726 100.794C433.166 107.234 426.375 111.82 417.38 114.502L452.77 164.105H420.32ZM397.66 95.5313H379.043V64.9832H397.66C403.173 64.9832 407.257 66.3113 409.938 68.9928C412.769 71.6992 414.198 75.3831 414.198 80.0693C414.198 84.981 412.769 88.7902 409.938 91.4966C407.257 94.178 403.173 95.5313 397.66 95.5313Z" fill="#0F0B42"/>
<path fill-rule="evenodd" clip-rule="evenodd" d="M29.6182 156.359C32.1691 137.704 40.3874 120.278 53.1647 106.433C66.1637 92.3338 83.3935 82.8279 102.265 79.3434C121.044 75.9063 140.433 78.7035 157.469 87.3077C174.672 96.0348 188.619 110.039 197.265 127.265L156.303 148.855C149.336 134.522 137.377 123.215 122.665 117.052C110.75 112.09 97.6237 110.793 84.9663 113.327C72.309 115.86 60.6973 122.11 51.6184 131.274C44.5827 138.353 39.2572 146.942 36.0473 156.386H29.6182V156.359Z" fill="#EEAB3F"/>
<path fill-rule="evenodd" clip-rule="evenodd" d="M19.8096 156.359C21.4739 125.934 34.1358 97.1542 55.4335 75.3873C76.8837 53.4652 105.781 40.416 136.392 38.8281C166.971 37.3022 197.004 47.357 220.515 66.9922C244.211 86.7923 259.753 114.67 264.146 145.256L214.889 152.622C213.794 145.058 211.101 137.673 208.235 130.822C203.737 120.07 196.246 106.99 186.866 97.5124C178.176 88.7719 167.85 81.8331 156.478 77.0933C145.107 72.3534 132.913 69.9056 120.595 69.8899C108.275 69.8878 96.0758 72.3275 84.7017 77.0684C73.3276 81.8093 63.0034 88.7575 54.3245 97.5124C38.6105 113.307 28.9977 134.167 27.194 156.386H19.8096V156.359Z" fill="#EA723E"/>
<path fill-rule="evenodd" clip-rule="evenodd" d="M21.9062 97.5832C14.2576 116.246 10.2175 136.189 10 156.357V156.384H16.4131C16.8505 140.025 20.3377 123.892 26.6958 108.813C33.4995 92.6722 43.4846 78.0672 56.0555 65.8693C74.8612 47.5595 98.8394 35.471 124.743 31.2408C150.647 27.0106 177.225 30.8431 200.879 42.2192C216.623 49.7835 230.671 60.4617 242.172 73.6084C261.796 96.1281 273.148 124.625 274.427 154.392V164.124H322.972V159.008L322.999 159.009C323.084 137.973 319.115 117.118 311.309 97.5832C303.454 78.4247 291.916 60.9937 277.349 46.2781C255.582 24.1686 227.691 9.08623 197.272 2.97545C166.853 -3.13533 135.301 0.00568812 106.684 11.9935C87.6505 19.9602 70.3799 31.6119 55.8661 46.2781C41.2996 60.9942 29.7618 78.4251 21.9062 97.5832Z" fill="#EC556C"/>
</g>
<defs>
<clipPath id="clip0_7_67">
<rect width="958" height="193" fill="white"/>
</clipPath>
</defs>
</svg>
